<svg width="640" height="180" viewBox="0 0 640 180" fill="none" xmlns="http://www.w3.org/2000/svg">
  <defs>
    <linearGradient id="bg" x1="18" y1="12" x2="122" y2="134" gradientUnits="userSpaceOnUse">
      <stop stop-color="#2A183C"/>
      <stop offset="0.52" stop-color="#5F3DC4"/>
      <stop offset="1" stop-color="#171125"/>
    </linearGradient>
    <linearGradient id="stroke" x1="24" y1="20" x2="116" y2="122" gradientUnits="userSpaceOnUse">
      <stop stop-color="#F9E7A7"/>
      <stop offset="0.48" stop-color="#E7C86D"/>
      <stop offset="1" stop-color="#8A63F6"/>
    </linearGradient>
    <linearGradient id="ribbon" x1="45" y1="33" x2="101" y2="105" gradientUnits="userSpaceOnUse">
      <stop stop-color="#FFF7D4"/>
      <stop offset="0.34" stop-color="#F4D881"/>
      <stop offset="0.7" stop-color="#FFFFFF"/>
      <stop offset="1" stop-color="#D9C2FF"/>
    </linearGradient>
    <linearGradient id="text" x1="178" y1="46" x2="520" y2="144" gradientUnits="userSpaceOnUse">
      <stop stop-color="#201631"/>
      <stop offset="0.6" stop-color="#4F2FB3"/>
      <stop offset="1" stop-color="#201631"/>
    </linearGradient>
    <linearGradient id="spark" x1="94" y1="11" x2="116" y2="37" gradientUnits="userSpaceOnUse">
      <stop stop-color="#FFF4C2"/>
      <stop offset="1" stop-color="#F2C66D"/>
    </linearGradient>
    <filter id="shadow" x="0" y="0" width="146" height="146" filterUnits="userSpaceOnUse" color-interpolation-filters="sRGB">
      <feFlood flood-opacity="0" result="BackgroundImageFix"/>
      <feColorMatrix in="SourceAlpha" type="matrix" values="0 0 0 0 0 0 0 0 0 0 0 0 0 0 0 0 0 0 127 0" result="hardAlpha"/>
      <feOffset dy="8"/>
      <feGaussianBlur stdDeviation="8"/>
      <feComposite in2="hardAlpha" operator="out"/>
      <feColorMatrix type="matrix" values="0 0 0 0 0.122 0 0 0 0 0.071 0 0 0 0 0.216 0 0 0 0.24 0"/>
      <feBlend mode="normal" in2="BackgroundImageFix" result="effect1_dropShadow_1_1"/>
      <feBlend mode="normal" in="SourceGraphic" in2="effect1_dropShadow_1_1" result="shape"/>
    </filter>
  </defs>
  <g filter="url(#shadow)">
    <rect x="18" y="18" width="110" height="110" rx="32" fill="url(#bg)"/>
    <rect x="23" y="23" width="100" height="100" rx="27" stroke="url(#stroke)" stroke-width="1.2" fill="rgba(255,255,255,0.04)"/>
    <path d="M45 96V50C45 46.134 48.134 43 52 43C54.355 43 56.557 44.184 57.851 46.154L81.5 82.155V50C81.5 46.134 84.634 43 88.5 43C92.366 43 95.5 46.134 95.5 50V96C95.5 99.866 92.366 103 88.5 103C86.145 103 83.943 101.816 82.649 99.846L59 63.845V96C59 99.866 55.866 103 52 103C48.134 103 45 99.866 45 96Z" fill="url(#ribbon)"/>
    <path d="M99 14L101.84 21.66L109.5 24.5L101.84 27.34L99 35L96.16 27.34L88.5 24.5L96.16 21.66L99 14Z" fill="url(#spark)"/>
  </g>
  <text x="168" y="98" fill="url(#text)" font-family="Inter, SF Pro Display, Segoe UI, sans-serif" font-size="68" font-weight="800" letter-spacing="-0.06em">Nailio</text>
  <text x="172" y="128" fill="#7A7091" font-family="Inter, SF Pro Display, Segoe UI, sans-serif" font-size="18" font-weight="600" letter-spacing="0.18em">PREMIUM BOOKING OS</text>
</svg>
