<svg width="256" height="256" viewBox="0 0 256 256" fill="none" xmlns="http://www.w3.org/2000/svg">
  <defs>
    <linearGradient id="bg" x1="32" y1="20" x2="214" y2="236" gradientUnits="userSpaceOnUse">
      <stop stop-color="#2A183C"/>
      <stop offset="0.52" stop-color="#5F3DC4"/>
      <stop offset="1" stop-color="#171125"/>
    </linearGradient>
    <linearGradient id="glass" x1="56" y1="48" x2="196" y2="210" gradientUnits="userSpaceOnUse">
      <stop stop-color="rgba(255,255,255,0.42)"/>
      <stop offset="1" stop-color="rgba(255,255,255,0.08)"/>
    </linearGradient>
    <linearGradient id="stroke" x1="46" y1="34" x2="204" y2="226" gradientUnits="userSpaceOnUse">
      <stop stop-color="#F9E7A7"/>
      <stop offset="0.5" stop-color="#E7C86D"/>
      <stop offset="1" stop-color="#8A63F6"/>
    </linearGradient>
    <linearGradient id="ribbon" x1="79" y1="66" x2="178" y2="189" gradientUnits="userSpaceOnUse">
      <stop stop-color="#FFF7D4"/>
      <stop offset="0.36" stop-color="#F4D881"/>
      <stop offset="0.7" stop-color="#FFFFFF"/>
      <stop offset="1" stop-color="#D9C2FF"/>
    </linearGradient>
    <linearGradient id="spark" x1="174" y1="46" x2="208" y2="83" gradientUnits="userSpaceOnUse">
      <stop stop-color="#FFF4C2"/>
      <stop offset="1" stop-color="#F2C66D"/>
    </linearGradient>
    <filter id="shadow" x="18" y="18" width="220" height="220" filterUnits="userSpaceOnUse" color-interpolation-filters="sRGB">
      <feFlood flood-opacity="0" result="BackgroundImageFix"/>
      <feColorMatrix in="SourceAlpha" type="matrix" values="0 0 0 0 0 0 0 0 0 0 0 0 0 0 0 0 0 0 127 0" result="hardAlpha"/>
      <feOffset dy="12"/>
      <feGaussianBlur stdDeviation="12"/>
      <feComposite in2="hardAlpha" operator="out"/>
      <feColorMatrix type="matrix" values="0 0 0 0 0.122 0 0 0 0 0.071 0 0 0 0 0.216 0 0 0 0.34 0"/>
      <feBlend mode="normal" in2="BackgroundImageFix" result="effect1_dropShadow_1_1"/>
      <feBlend mode="normal" in="SourceGraphic" in2="effect1_dropShadow_1_1" result="shape"/>
    </filter>
  </defs>
  <g filter="url(#shadow)">
    <rect x="28" y="28" width="200" height="200" rx="56" fill="url(#bg)"/>
    <rect x="37" y="37" width="182" height="182" rx="47" fill="url(#glass)" fill-opacity="0.15" stroke="url(#stroke)" stroke-width="1.5"/>
    <path d="M78 171V86C78 79.373 83.373 74 90 74C94.038 74 97.811 76.03 100.03 79.406L143.796 146.011V86C143.796 79.373 149.169 74 155.796 74C162.423 74 167.796 79.373 167.796 86V171C167.796 177.627 162.423 183 155.796 183C151.758 183 147.985 180.97 145.766 177.594L102 110.989V171C102 177.627 96.627 183 90 183C83.373 183 78 177.627 78 171Z" fill="url(#ribbon)"/>
    <path d="M74 173V84" stroke="rgba(255,255,255,0.18)" stroke-width="4" stroke-linecap="round"/>
    <path d="M183.5 48L187.852 59.648L199.5 64L187.852 68.352L183.5 80L179.148 68.352L167.5 64L179.148 59.648L183.5 48Z" fill="url(#spark)"/>
    <circle cx="181" cy="191" r="10" fill="rgba(255,255,255,0.12)"/>
  </g>
</svg>
